# xmcd
#
# Track frame offsets:
#	150
#	13058
#	21286
#	36016
#	46914
#	57849
#	69819
#	80094
#	91937
#	100502
#	111497
#	120115
#
# Disc length: 1743 seconds
#
# Revision: 1
# Processed by: cddbd v1.5.2PL0 Copyright (c) Steve Scherf et al.
# Submitted via: audiograbber 1.83.01
#
DISCID=8a06cd0c
DTITLE=Floyd Cramer - Country Piano City Strings
DYEAR=1964
DGENRE=Instrumental
TTITLE0=Heartless Heart
TTITLE1=Bonaparte's Retreat
TTITLE2=Streets Of Laredo
TTITLE3=It Makes No Difference Now
TTITLE4=Chattanoogie Shoe Shine Boy
TTITLE5=You Don't Know Me
TTITLE6=Making Believe
TTITLE7=I Love You Because
TTITLE8=Night Train To Memphis
TTITLE9=I Can't Stop Loving You
TTITLE10=Cotton Fields
TTITLE11=Lonesome Whistle
EXTD=
EXTT0=
EXTT1=
EXTT2=
EXTT3=
EXTT4=
EXTT5=
EXTT6=
EXTT7=
EXTT8=
EXTT9=
EXTT10=
EXTT11=
PLAYORDER=
